# xmcd
#
# Track frame offsets:
#	150
#	17222
#	35075
#	52883
#	68156
#	88075
#	104578
#	115447
#	130472
#	146481
#	158599
#	169986
#	182674
#	195275
#	213506
#	231069
#
# Disc length: 3331 seconds
#
# Revision: 1
# Processed by: cddbd v1.5.2PL0 Copyright (c) Steve Scherf et al.
# Submitted via: audiograbber 1.83.01
#
DISCID=e30d0110
DTITLE=Gayl Brown - In My Wildest Dreams
DYEAR=2010
DGENRE=Bluegrass
TTITLE0=How Many Times
TTITLE1=In My Wildest Dreams
TTITLE2=No Strings Attached
TTITLE3=Memory Get Away From Me
TTITLE4=When I Dream
TTITLE5=Broken Heart Blues
TTITLE6=Trouble Is Just Around the Corner
TTITLE7=I've Got Something On My Mind
TTITLE8=Teardrops In My Eyes
TTITLE9=A Hundred Times Before
TTITLE10=Teddy Bear
TTITLE11=Well Do I Remember
TTITLE12=Where Do Dreams Go
TTITLE13=Listen To Mama
TTITLE14=Happy Day
TTITLE15=How Could That Happen Again
EXTD=
EXTT0=
EXTT1=
EXTT2=
EXTT3=
EXTT4=
EXTT5=
EXTT6=
EXTT7=
EXTT8=
EXTT9=
EXTT10=
EXTT11=
EXTT12=
EXTT13=
EXTT14=
EXTT15=
PLAYORDER=
